<mxfile host="65bd71144e">
    <diagram id="3eAFCPGNRb82KXTzk0Cz" name="Page-1">
        <mxGraphModel dx="2130" dy="784" grid="0" gridSize="10" guides="1" tooltips="1" connect="1" arrows="1" fold="1" page="1" pageScale="1" pageWidth="850" pageHeight="1100" background="#ffffff" math="0" shadow="0">
            <root>
                <mxCell id="0"/>
                <mxCell id="1" parent="0"/>
                <mxCell id="2" value="&lt;font size=&quot;1&quot;&gt;&lt;font style=&quot;font-weight: bold; font-size: 17px;&quot; color=&quot;#cc0000&quot;&gt;Step 1:&lt;br&gt;Mapping of reular entity types&amp;nbsp;&lt;/font&gt;&lt;br&gt;&lt;font style=&quot;font-size: 12px;&quot; color=&quot;#000000&quot;&gt;For each regular entity type create &lt;br&gt;a relation(table) that includes all &lt;br&gt;the simple attributes of the entity&lt;/font&gt;&lt;br&gt;&lt;/font&gt;" style="text;html=1;align=center;verticalAlign=middle;resizable=0;points=[];autosize=1;strokeColor=#000000;fillColor=none;" vertex="1" parent="1">
                    <mxGeometry x="7" y="154" width="265" height="96" as="geometry"/>
                </mxCell>
                <mxCell id="10" value="salary" style="whiteSpace=wrap;html=1;align=center;strokeColor=#006EAF;fontSize=12;fontColor=#ffffff;fillColor=#1ba1e2;" vertex="1" parent="1">
                    <mxGeometry x="517" y="313" width="100" height="40" as="geometry"/>
                </mxCell>
                <mxCell id="11" value="sex" style="whiteSpace=wrap;html=1;align=center;strokeColor=#006EAF;fontSize=12;fontColor=#ffffff;fillColor=#1ba1e2;" vertex="1" parent="1">
                    <mxGeometry x="417" y="313" width="100" height="40" as="geometry"/>
                </mxCell>
                <mxCell id="12" value="birth_date" style="whiteSpace=wrap;html=1;align=center;strokeColor=#006EAF;fontSize=12;fontColor=#ffffff;fillColor=#1ba1e2;" vertex="1" parent="1">
                    <mxGeometry x="317" y="313" width="100" height="40" as="geometry"/>
                </mxCell>
                <mxCell id="13" value="&lt;u&gt;emp_id&lt;/u&gt;" style="whiteSpace=wrap;html=1;align=center;strokeColor=#C73500;fontSize=12;fontColor=#000000;fillColor=#fa6800;" vertex="1" parent="1">
                    <mxGeometry x="17" y="313" width="100" height="40" as="geometry"/>
                </mxCell>
                <mxCell id="14" value="last_name" style="whiteSpace=wrap;html=1;align=center;strokeColor=#006EAF;fontSize=12;fontColor=#ffffff;fillColor=#1ba1e2;" vertex="1" parent="1">
                    <mxGeometry x="217" y="313" width="100" height="40" as="geometry"/>
                </mxCell>
                <mxCell id="15" value="first_name" style="whiteSpace=wrap;html=1;align=center;strokeColor=#006EAF;fontSize=12;fontColor=#ffffff;fillColor=#1ba1e2;" vertex="1" parent="1">
                    <mxGeometry x="117" y="313" width="100" height="40" as="geometry"/>
                </mxCell>
                <mxCell id="18" value="client_name" style="whiteSpace=wrap;html=1;align=center;strokeColor=#006EAF;fontSize=12;fontColor=#ffffff;fillColor=#1ba1e2;" vertex="1" parent="1">
                    <mxGeometry x="122" y="479" width="100" height="40" as="geometry"/>
                </mxCell>
                <mxCell id="19" value="&lt;u&gt;client_id&lt;/u&gt;" style="whiteSpace=wrap;html=1;align=center;strokeColor=#C73500;fontSize=12;fontColor=#000000;fillColor=#fa6800;" vertex="1" parent="1">
                    <mxGeometry x="21" y="479" width="100" height="40" as="geometry"/>
                </mxCell>
                <mxCell id="20" value="branch_name" style="whiteSpace=wrap;html=1;align=center;strokeColor=#006EAF;fontSize=12;fontColor=#ffffff;fillColor=#1ba1e2;" vertex="1" parent="1">
                    <mxGeometry x="122" y="396" width="100" height="40" as="geometry"/>
                </mxCell>
                <mxCell id="21" value="&lt;u&gt;branch_id&lt;/u&gt;" style="whiteSpace=wrap;html=1;align=center;strokeColor=#C73500;fontSize=12;fontColor=#000000;fillColor=#fa6800;" vertex="1" parent="1">
                    <mxGeometry x="21" y="396" width="100" height="40" as="geometry"/>
                </mxCell>
                <mxCell id="23" value="&lt;font style=&quot;font-size: 18px;&quot;&gt;&lt;b&gt;Branch&lt;/b&gt;&lt;/font&gt;" style="text;html=1;align=center;verticalAlign=middle;resizable=0;points=[];autosize=1;strokeColor=none;fillColor=none;fontSize=12;fontColor=#000000;" vertex="1" parent="1">
                    <mxGeometry x="21" y="360" width="80" height="34" as="geometry"/>
                </mxCell>
                <mxCell id="24" value="&lt;font style=&quot;font-size: 18px;&quot;&gt;&lt;b&gt;Employee&lt;/b&gt;&lt;/font&gt;" style="text;html=1;align=center;verticalAlign=middle;resizable=0;points=[];autosize=1;strokeColor=none;fillColor=none;fontSize=12;fontColor=#000000;" vertex="1" parent="1">
                    <mxGeometry x="22" y="279" width="103" height="34" as="geometry"/>
                </mxCell>
                <mxCell id="25" value="&lt;font style=&quot;font-size: 18px;&quot;&gt;&lt;b&gt;Client&lt;/b&gt;&lt;/font&gt;" style="text;html=1;align=center;verticalAlign=middle;resizable=0;points=[];autosize=1;strokeColor=none;fillColor=none;fontSize=12;fontColor=#000000;" vertex="1" parent="1">
                    <mxGeometry x="22" y="445" width="68" height="34" as="geometry"/>
                </mxCell>
                <mxCell id="26" value="&lt;font size=&quot;1&quot;&gt;&lt;font style=&quot;font-weight: bold; font-size: 17px;&quot; color=&quot;#cc0000&quot;&gt;Step 2: &lt;br&gt;Mapping of weak entity types&lt;/font&gt;&lt;br&gt;&lt;/font&gt;&lt;span style=&quot;color: rgb(0, 0, 0);&quot;&gt;For each weak entity type create&lt;/span&gt;&lt;br style=&quot;color: rgb(0, 0, 0);&quot;&gt;&lt;span style=&quot;color: rgb(0, 0, 0);&quot;&gt;a relation(table) that includes all&lt;/span&gt;&lt;br style=&quot;color: rgb(0, 0, 0);&quot;&gt;&lt;span style=&quot;color: rgb(0, 0, 0);&quot;&gt;the simple attributes of the weak entity&lt;/span&gt;&lt;font size=&quot;1&quot;&gt;&lt;br&gt;&lt;/font&gt;" style="text;html=1;align=center;verticalAlign=middle;resizable=0;points=[];autosize=1;strokeColor=#000000;fillColor=none;" vertex="1" parent="1">
                    <mxGeometry x="287" y="154" width="254" height="96" as="geometry"/>
                </mxCell>
                <mxCell id="27" value="&lt;u&gt;&lt;font style=&quot;font-size: 12px;&quot;&gt;branch_id&lt;/font&gt;&lt;/u&gt;" style="shape=ext;margin=3;double=1;whiteSpace=wrap;html=1;align=center;strokeColor=#C73500;fontSize=18;fontColor=#000000;fillColor=#fa6800;" vertex="1" parent="1">
                    <mxGeometry x="21" y="567" width="100" height="40" as="geometry"/>
                </mxCell>
                <mxCell id="29" value="&lt;u&gt;&lt;font style=&quot;font-size: 12px;&quot;&gt;supplier_name&lt;/font&gt;&lt;/u&gt;" style="whiteSpace=wrap;html=1;align=center;strokeColor=#C73500;fontSize=18;fontColor=#000000;fillColor=#fa6800;" vertex="1" parent="1">
                    <mxGeometry x="122" y="567" width="100" height="40" as="geometry"/>
                </mxCell>
                <mxCell id="30" value="&lt;font style=&quot;font-size: 12px;&quot;&gt;supply_type&lt;/font&gt;" style="whiteSpace=wrap;html=1;align=center;strokeColor=#006EAF;fontSize=18;fontColor=#ffffff;fillColor=#1ba1e2;" vertex="1" parent="1">
                    <mxGeometry x="222" y="567" width="100" height="40" as="geometry"/>
                </mxCell>
                <mxCell id="31" value="&lt;font size=&quot;1&quot;&gt;&lt;font style=&quot;font-weight: bold; font-size: 17px;&quot; color=&quot;#cc0000&quot;&gt;Step 3: &lt;br&gt;Mapping of binary 1:1&lt;br&gt;relationship types&lt;/font&gt;&lt;br&gt;&lt;font style=&quot;font-size: 12px;&quot; color=&quot;#000000&quot;&gt;Include one side of the&lt;br&gt;&amp;nbsp;relationship as a foreign key in the other&lt;br&gt;favour total participation&lt;/font&gt;&lt;br&gt;&lt;/font&gt;" style="text;html=1;align=center;verticalAlign=middle;resizable=0;points=[];autosize=1;strokeColor=#000000;fillColor=none;" vertex="1" parent="1">
                    <mxGeometry x="557" y="144" width="234" height="116" as="geometry"/>
                </mxCell>
                <mxCell id="35" value="&lt;font style=&quot;font-size: 18px;&quot;&gt;&lt;b&gt;Branch Supplier&lt;/b&gt;&lt;/font&gt;" style="text;html=1;align=center;verticalAlign=middle;resizable=0;points=[];autosize=1;strokeColor=none;fillColor=none;fontSize=12;fontColor=#000000;" vertex="1" parent="1">
                    <mxGeometry x="22" y="533" width="157" height="34" as="geometry"/>
                </mxCell>
                <mxCell id="36" value="&lt;u&gt;&lt;font style=&quot;font-size: 12px;&quot;&gt;emp_id&lt;/font&gt;&lt;/u&gt;" style="whiteSpace=wrap;html=1;align=center;strokeColor=#C73500;fontSize=18;fontColor=#000000;fillColor=#fa6800;" vertex="1" parent="1">
                    <mxGeometry x="17" y="654" width="100" height="40" as="geometry"/>
                </mxCell>
                <mxCell id="37" value="&lt;font style=&quot;font-size: 18px;&quot;&gt;&lt;b&gt;Works On&lt;/b&gt;&lt;/font&gt;" style="text;html=1;align=center;verticalAlign=middle;resizable=0;points=[];autosize=1;strokeColor=none;fillColor=none;fontSize=12;fontColor=#000000;" vertex="1" parent="1">
                    <mxGeometry x="22" y="622" width="103" height="34" as="geometry"/>
                </mxCell>
                <mxCell id="55" style="edgeStyle=none;html=1;exitX=0.5;exitY=1;exitDx=0;exitDy=0;entryX=1;entryY=0.5;entryDx=0;entryDy=0;entryPerimeter=0;strokeColor=#000000;fontSize=12;fontColor=#000000;" edge="1" parent="1" source="39" target="54">
                    <mxGeometry relative="1" as="geometry">
                        <Array as="points">
                            <mxPoint x="164" y="713"/>
                            <mxPoint y="713"/>
                            <mxPoint y="505"/>
                        </Array>
                    </mxGeometry>
                </mxCell>
                <mxCell id="39" value="&lt;u&gt;&lt;font style=&quot;font-size: 12px;&quot;&gt;client_id&lt;/font&gt;&lt;/u&gt;" style="whiteSpace=wrap;html=1;align=center;strokeColor=#C73500;fontSize=18;fontColor=#000000;fillColor=#fa6800;" vertex="1" parent="1">
                    <mxGeometry x="117" y="654" width="100" height="40" as="geometry"/>
                </mxCell>
                <mxCell id="40" value="&lt;font style=&quot;font-size: 12px;&quot;&gt;total_sales&lt;/font&gt;" style="whiteSpace=wrap;html=1;align=center;strokeColor=#006EAF;fontSize=18;fontColor=#ffffff;fillColor=#1ba1e2;" vertex="1" parent="1">
                    <mxGeometry x="217" y="654" width="100" height="40" as="geometry"/>
                </mxCell>
                <mxCell id="48" style="edgeStyle=none;html=1;exitX=0.5;exitY=1;exitDx=0;exitDy=0;entryX=0.635;entryY=0.859;entryDx=0;entryDy=0;entryPerimeter=0;strokeColor=#000000;fontSize=12;fontColor=#000000;" edge="1" parent="1" source="41" target="13">
                    <mxGeometry relative="1" as="geometry">
                        <Array as="points">
                            <mxPoint x="666" y="370"/>
                            <mxPoint x="89" y="366"/>
                        </Array>
                    </mxGeometry>
                </mxCell>
                <mxCell id="41" value="super_id" style="whiteSpace=wrap;html=1;align=center;strokeColor=#2D7600;fontSize=12;fontColor=#ffffff;fillColor=#60a917;" vertex="1" parent="1">
                    <mxGeometry x="617" y="313" width="100" height="40" as="geometry"/>
                </mxCell>
                <mxCell id="50" style="edgeStyle=none;html=1;exitX=0.5;exitY=1;exitDx=0;exitDy=0;entryX=0.75;entryY=1;entryDx=0;entryDy=0;strokeColor=#000000;fontSize=12;fontColor=#000000;" edge="1" parent="1" source="42" target="21">
                    <mxGeometry relative="1" as="geometry">
                        <Array as="points">
                            <mxPoint x="768" y="446"/>
                            <mxPoint x="96" y="451"/>
                        </Array>
                    </mxGeometry>
                </mxCell>
                <mxCell id="42" value="branch_id" style="whiteSpace=wrap;html=1;align=center;strokeColor=#2D7600;fontSize=12;fontColor=#ffffff;fillColor=#60a917;" vertex="1" parent="1">
                    <mxGeometry x="717" y="313" width="100" height="40" as="geometry"/>
                </mxCell>
                <mxCell id="51" style="edgeStyle=none;html=1;exitX=0.5;exitY=1;exitDx=0;exitDy=0;entryX=1;entryY=1;entryDx=0;entryDy=0;strokeColor=#000000;fontSize=12;fontColor=#000000;" edge="1" parent="1" source="44" target="13">
                    <mxGeometry relative="1" as="geometry">
                        <Array as="points">
                            <mxPoint x="299" y="445"/>
                            <mxPoint x="630" y="439"/>
                            <mxPoint x="630" y="377"/>
                            <mxPoint x="443" y="377"/>
                            <mxPoint x="139" y="377"/>
                        </Array>
                    </mxGeometry>
                </mxCell>
                <mxCell id="44" value="mgr_id" style="whiteSpace=wrap;html=1;align=center;strokeColor=#2D7600;fontSize=12;fontColor=#ffffff;fillColor=#60a917;" vertex="1" parent="1">
                    <mxGeometry x="222" y="396" width="100" height="40" as="geometry"/>
                </mxCell>
                <mxCell id="46" value="mgr_start_date" style="whiteSpace=wrap;html=1;align=center;strokeColor=#006EAF;fontSize=12;fontColor=#ffffff;fillColor=#1ba1e2;" vertex="1" parent="1">
                    <mxGeometry x="322" y="396" width="100" height="40" as="geometry"/>
                </mxCell>
                <mxCell id="56" style="edgeStyle=none;html=1;exitX=1;exitY=0.5;exitDx=0;exitDy=0;entryX=0.5;entryY=1;entryDx=0;entryDy=0;strokeColor=#000000;fontSize=12;fontColor=#000000;" edge="1" parent="1" source="47" target="21">
                    <mxGeometry relative="1" as="geometry">
                        <Array as="points">
                            <mxPoint x="359" y="499"/>
                            <mxPoint x="359" y="461"/>
                            <mxPoint x="100" y="461"/>
                        </Array>
                    </mxGeometry>
                </mxCell>
                <mxCell id="47" value="branch_id" style="whiteSpace=wrap;html=1;align=center;strokeColor=#2D7600;fontSize=12;fontColor=#ffffff;fillColor=#60a917;" vertex="1" parent="1">
                    <mxGeometry x="221" y="479" width="100" height="40" as="geometry"/>
                </mxCell>
                <mxCell id="53" value="" style="strokeWidth=2;html=1;shape=mxgraph.flowchart.annotation_1;align=left;pointerEvents=1;strokeColor=#000000;fontSize=12;fontColor=#000000;fillColor=none;" vertex="1" parent="1">
                    <mxGeometry x="-33" y="332" width="50" height="345" as="geometry"/>
                </mxCell>
                <mxCell id="54" value="" style="strokeWidth=2;html=1;shape=mxgraph.flowchart.annotation_1;align=left;pointerEvents=1;strokeColor=#000000;fontSize=12;fontColor=#000000;fillColor=none;" vertex="1" parent="1">
                    <mxGeometry x="-10" y="412" width="32" height="179" as="geometry"/>
                </mxCell>
                <mxCell id="57" value="&lt;font style=&quot;font-size: 17px; font-weight: bold;&quot; color=&quot;#cc0000&quot;&gt;Step 5: &lt;br&gt;Mapping of binary M:N&lt;br&gt;relationship types&lt;/font&gt;&lt;br&gt;&lt;font color=&quot;#000000&quot;&gt;Create a new relation (table) who's primary &lt;br&gt;key is a combination&amp;nbsp;of both entities' &lt;br&gt;primary key's. Also include any attributes&lt;/font&gt;" style="text;html=1;align=center;verticalAlign=middle;resizable=0;points=[];autosize=1;strokeColor=#000000;fillColor=none;" vertex="1" parent="1">
                    <mxGeometry x="498" y="651" width="246" height="116" as="geometry"/>
                </mxCell>
                <mxCell id="58" value="&lt;font style=&quot;font-size: 17px; font-weight: bold;&quot; color=&quot;#cc0000&quot;&gt;Step 4: &lt;br&gt;Mapping of binary 1:N&lt;br&gt;relationship types&lt;/font&gt;&lt;br&gt;&lt;font color=&quot;#000000&quot;&gt;Include the 1 side's primary key &lt;br&gt;on the N side relation(table)&lt;/font&gt;" style="text;html=1;align=center;verticalAlign=middle;resizable=0;points=[];autosize=1;strokeColor=#000000;fillColor=none;" vertex="1" parent="1">
                    <mxGeometry x="523" y="516" width="197" height="102" as="geometry"/>
                </mxCell>
            </root>
        </mxGraphModel>
    </diagram>
</mxfile>